<svg xmlns="http://www.w3.org/2000/svg" viewBox="0 0 600.8019 563.9162">
  <title>gamedaylines-logo-full-color-rgb</title>
  <g id="full-rgb">
    <g>
      <path id="fullLogo" d="M510.3654,90.1433q-1.4313-3.18-2.8626-6.3555c10.8083-7.7913,16.4936-18.8036,16.4934-32.419.0012-25.3079-20.0726-42.4772-49.9454-40.3186-20.4829,1.4784-38.49,13.101-50.4186,29.8752-1.1615-7.0574-5.4481-12.9117-12.3581-16.6585a35.3927,35.3927,0,0,0-21.69-3.6c-14.898,2.2219-26.9522,10.9383-36.1159,19.8407-7.7574-7.7467-17.5673-11.0414-28.0717-9.1407C314.55,33.3283,305.16,39.2741,297.473,45.92v-7.511q-5.1518.9664-10.303,1.9408-12.86,2.4309-25.72,4.8828l-2.0123.3824q-5.7147,1.0854-11.43,2.1674-13.9227,2.6334-27.8453,5.2067-4.1.755-8.2,1.5006-.2993,1.3549-.5987,2.71a57.0843,57.0843,0,0,0-16.6846.3828c-18.689,3.294-35.303,15.3585-46.7007,33.0213l-.6163.093c-15.5168,2.34-31.0332,4.442-46.55,6.2145q-3.5932.4106-7.1861.7969-1.2416,3.5064-2.4828,7.01-4.5681,12.8961-9.1362,25.7513-2.5494,7.1745-5.0985,14.3361,6.0885-.5529,12.177-1.1816c-5.1336,5.1431-10.3611,8.1215-15.2584,8.55C66.6105,152.8,63.3658,141.11,63.366,132.656c0-33.0259,19.409-71.28,45.3852-74.4513a4.121,4.121,0,0,1,.6088-.0312c-.1542.3333-.3623.7634-.6491,1.3416a45.8324,45.8324,0,0,0-2.6035,6.0629q-1.4751,4.3888-2.9506,8.7737,3.96,1.5995,7.9209,3.1709,11.7984,4.6815,23.5969,9.1362,3.7014,1.4,7.403,2.78,2.6525-3.6115,5.3047-7.2325c9.01-12.3062,13.2069-24.2974,13.2059-37.6219.0011-21.8062-23.7-38.5322-48.7683-35.444-29.6162,3.7115-56.521,19.4417-75.7558,45.114C18.7231,77.41,8.7805,107.7217,8.78,138.2984c0,17.6118,5.0377,33.7111,14.1893,45.08,10.7877,13.4,26.6607,19.9631,45.9034,18.3744a69.0171,69.0171,0,0,0,31.2533-10.4542q-.2013,1.7205-.4022,3.4414a143.9043,143.9043,0,0,0-21.9495,8.794q-4.7347,2.4642-9.47,4.8808,2.0282,4.5684,4.0569,9.1279,4.9552,11.1369,9.9109,22.2225,1.7276,3.867,3.456,7.7279,3.681-1.2882,7.3625-2.6028-5.8732,51.1839-11.7468,102.3-.1446,1.2047-.2893,2.41c-1.8414,15.45-17.972,150.8273-17.9722,166.7566,0,12.9045,6.3744,24.1364,17.9447,31.305,9.77,6.0516,22.7247,8.638,35.54,6.989,13.6455-1.7459,30.3346-8.0173,50.866-19.38a35.55,35.55,0,0,0,25.584,5.4637,55.5884,55.5884,0,0,0,14.0961-4.3925q.7362-.1325,1.4717-.2657,13.2144-2.3887,26.429-4.8727,4.158-.7785,8.3159-1.5632.8778-4.2294,1.7557-8.4586c3.4632-16.6939,10.9376-52.6987,22.6611-64.1781-.2795,2.6441-.68,5.5734-1.1168,8.732a186.0126,186.0126,0,0,0-2.2739,25.785c0,20.6522,16.9,34.2031,37.6753,30.3145,9.03-1.69,21.5832-9.01,29.9031-14.3487a54.4843,54.4843,0,0,0,32.1515,4.0575c13.2813-2.1911,28.246-9.29,39.8009-15.6552,10.4594,3.5452,28.1226,5.8008,39.6049,4.7547q.3874-.0389.7746-.0782c28.2389-3.0858,58.2465-20.3724,58.2467-50.1494.0006-16.0523-8.0063-25.1009-17.2733-30.492q5.7691-.6538,11.538-1.2261,4.9475-.49,9.8955-.9186-.0754-4.953-.151-9.9059c-.3819-24.6035-16.9271-40.199-42.1576-38.1106-12.79,1.0543-26.183,6.9785-36.74,16.1A61.5993,61.5993,0,0,0,416.36,398.57c-7.4095-13.7128-23.9466-20.5152-45.67-17.0168-21.4708,3.4518-40.2232,17.3816-52.101,36.1674-2.3533-15.5711-16.3351-24.1647-34.9664-20.6291a59.0638,59.0638,0,0,0-26.98,13.1364v-6.1249q-5.1515.9775-10.3031,1.952-12.9779,2.4525-25.9561,4.8507-2.91.5361-5.8207,1.0674-5.8183,1.0626-11.6363,2.1036-14.0411,2.5109-28.0817,4.8635-4.6156.7695-9.2314,1.5174-.5043,4.67-1.0087,9.339c-.042.3834-3.8615,35.6868-6.4268,60.7453-13.7052,8.1438-23.2,13.4708-38.3068,15.4669-2.6263.3438-5.5086-4.7675-5.5086-9.7568.1322-4.2641,5.233-52.562,13.3818-126.7953a156.5963,156.5963,0,0,0,73.4718-45.2487c5.353,20.6122,24.2379,34.6048,44.6683,30.73,13.8161-2.6118,24.8441-10.7864,34.5511-19.0956a31.7677,31.7677,0,0,0,25.8584,6.0206q1.8565-.3453,3.6272-.8414-5.7376,11.4351-11.4753,22.885-2.3571,4.7016-4.7138,9.4049,4.12,1.8179,8.24,3.6414c16.359,7.2454,35.2348,9.2373,54.5738,5.9854a82.0109,82.0109,0,0,0,48.8211-27.1441c10.3328-11.8514,17.1719-26.473,18.7549-40.2985q6.0182-53.964,12.036-107.864.648-5.8024,1.2954-11.6037-5.7665.636-11.5331,1.3329-12.7431,1.5384-25.4857,3.3455-4.3417.613-8.6832,1.2532-.7357,4.3872-1.4715,8.775c-8.4719,50.535-17.9477,62.625-21.97,65.5235.5136-24.3561,5.0082-59.4593,5.0561-59.83q.7671-5.9463,1.5343-11.892-5.8744.9289-11.7494,1.8975-13.8042,2.2741-27.609,4.73-4.4271.7848-8.854,1.5834-5.7152,1.03-11.43,2.0816-13.9228,2.5586-27.8454,5.1994-4.1.775-8.2,1.5532l-.5987,2.7145a55.9792,55.9792,0,0,0-16.6844.57,65.3829,65.3829,0,0,0-29.6616,14.4432c-2.2722-18.5825-12.15-33.8537-28.3735-43.7261a77.9683,77.9683,0,0,0-21.8485-8.9076c12.2393-2.9829,22.243-10.3677,31.1378-17.9151a31.5331,31.5331,0,0,0,25.8582,6.09,47.2684,47.2684,0,0,0,13.5856-4.9252q11.8437-2.2454,23.6873-4.5007,4.3643-.8286,8.7285-1.655.7167-4.4409,1.4337-8.8814c2.1928-13.5616,8.3154-51.481,22.7542-62.9081-1.0516,12.0044-3.7974,38.0787-5.871,56.89q-.6453,5.8478-1.29,11.6959,5.7642-1.0765,11.5279-2.1388,13.45-2.4772,26.9-4.8439,4.2371-.7426,8.4743-1.47.8175-4.2972,1.6351-8.5935.2653-1.401.5305-2.8022c4.1133-21.6824,10.0894-53.2479,22.9205-61.82-.3578,4.4813-1.023,8.5918-1.718,12.86a134.1515,134.1515,0,0,0-2.2639,22.941c-.0009,20.2687,16.7952,33.9594,37.4389,31.1518,11.497-1.56,20.5285-6.2014,28.5623-11.44a58.27,58.27,0,0,0,31.3645,6.0614c18.6762-1.5111,36.0839-9.8474,47.5533-15.8033q4.4018-2.2952,8.8036-4.5368-1.9985-4.48-3.997-8.9482Q515.0842,100.6325,510.3654,90.1433ZM136.1209,315.65q4.806-41.3611,9.6115-82.7548,2.03-.3037,4.06-.6132c13.8448-2.0887,30.7559,10.9752,30.7557,29.5665,0,16.6638-12.1425,30.6229-19.3785,37.3823A87.31,87.31,0,0,1,136.1209,315.65Zm13.06-136.307a40.1045,40.1045,0,0,0,6.9375,4.51q-3.7126.0642-7.4657.3825Q148.9169,181.7888,149.181,179.3425Zm55.2529-71.8949c0,11.6852-10.74,29.6112-16.8354,30.6562-2.14.37-4.0907-1.5834-4.09-4.0963-.0008-14.7563,9.8692-30.3531,17.6078-31.9432C202.1418,102.2818,204.4348,104.51,204.4339,107.4476ZM433.0524,456.0244c-9.5906-.4533-19.8136-2.1467-24.1854-5.0469q-1.328-.8838-2.6565-1.7647a47.6107,47.6107,0,0,0,6.4521-7.241c4.02,6.6739,10.79,11.3158,20.2689,14.0159C432.9725,456.0009,433.0113,456.0108,433.0524,456.0244ZM250.76,301.474c-.0005-14.759,9.8684-30.5338,17.6078-32.2108,1.0258.2043,3.3179,2.4084,3.3176,5.3458-.0012,11.6806-10.74,29.7326-16.8354,30.8887C252.7093,305.9044,250.7589,303.9874,250.76,301.474ZM369.3252,327.76a23.8176,23.8176,0,0,1-15.1378,9.4841c-11.1493,1.8991-16.4486.2264-28.1271-3.9218,1.4461-.9608,2.8224-1.9347,4.1252-2.8927a32.5253,32.5253,0,0,0,22.1128,3.6714A50.9333,50.9333,0,0,0,369.3252,327.76Z" style="fill: #204b59"/>
      <path id="fullLogo-2" data-name="fullLogo" d="M109,563.9162c-11.8165,0-23.35-3.065-32.5966-8.7921-14.0456-8.7022-22.1-22.8314-22.1-38.7653,0-14.8665,12.6116-122.2973,18.0344-167.7971l.2894-2.422,10.14-88.3117-1.76.613L59.6976,210.6649c-17.6272-.9259-32.8538-8.4707-43.5686-21.7811C5.7271,175.9592,0,157.9934,0,138.2978.0021,106.1792,10.5862,73.63,29.0364,48.9915,49.4736,21.7148,78.4843,4.4691,110.7294.4288,126.7277-1.5431,143.161,3.3631,154.686,13.557c9.4673,8.3742,14.6822,19.3934,14.6822,31.0277a67.5073,67.5073,0,0,1-1.4232,13.99,72.0762,72.0762,0,0,1,25.21-9.6388,62.1474,62.1474,0,0,1,11.2484-.9474l.24-1.0931,13.9277-2.54q13.9053-2.5592,27.804-5.2l59.8776-11.3214v1.2475a58.5633,58.5633,0,0,1,17.58-6.3552,39.0027,39.0027,0,0,1,29.3536,6.188C364.5,19.3678,376.042,13.81,388.2893,11.9838a44.3154,44.3154,0,0,1,27.1738,4.5676,34.2848,34.2848,0,0,1,10.2347,8.34c13.1947-13.2547,30.0074-21.32,47.72-22.5977,17.8244-1.2968,33.6533,3.588,44.5546,13.7326,9.5466,8.8822,14.8043,21.4339,14.8022,35.3423,0,13.8656-4.9963,25.7956-14.5279,34.8922l.1265.2808q4.72,10.5,9.4437,21.0587l7.4011,16.5684-7.4354,3.7852q-4.3628,2.2217-8.7278,4.499c-13.4412,6.981-31.3621,15.188-50.9054,16.77a67.5354,67.5354,0,0,1-31.4521-4.8462,73.2074,73.2074,0,0,1-28.0012,10.1747c-12.7124,1.7318-25.1162-1.7447-34.0326-9.5338a38.5192,38.5192,0,0,1-11.7415-18.5253c-1.25,5.7936-2.2934,11.2957-3.1443,15.79l-3.3159,17.4493-14.4485,2.4971q-13.41,2.3533-26.8245,4.8312l-59.6568,11.2485a54.8039,54.8039,0,0,1-14.873,5.17,40.6346,40.6346,0,0,1-26.8738-3.8538c-2.7949,2.1991-5.7635,4.3768-8.925,6.4q1.8422.99,3.603,2.062a67.3616,67.3616,0,0,1,29.4844,36.5661,71.6069,71.6069,0,0,1,22.3427-8.4106,62.9043,62.9043,0,0,1,11.3471-1.0931l.2443-1.1146,13.8934-2.6321q13.9568-2.6362,27.8983-5.2084l20.3365-3.678q13.8635-2.45,27.7161-4.7455,5.8965-.9709,11.7993-1.9076l11.585-1.839-.0043.0343,5.3735-.7845q4.366-.6431,8.7343-1.26,12.8186-1.8133,25.652-3.3694,5.8194-.7009,11.6258-1.3461l10.9012-1.2-14.545,130.3693c-1.7726,15.4924-9.3752,31.9193-20.8637,45.0968a91.5562,91.5562,0,0,1-13.4991,12.65,43.9022,43.9022,0,0,1,17.9766,10.1811q2.5431-2.6879,5.4228-5.1785c12.0072-10.37,27.2274-17.0056,41.7574-18.2016,14.7465-1.196,27.4847,2.6535,36.9027,11.1885,9.2894,8.4192,14.53,21.0395,14.7551,35.533l.2786,18.09-8.1556.703q-1.2572.1029-2.5142.2187a43.8385,43.8385,0,0,1,6.383,23.6672,50.0856,50.0856,0,0,1-3.1958,17.863l.12.0343-.1308-.0086c-9.2294,24.3274-36.8576,38.148-62.8655,40.99l-.9323.0943c-11.1135,1.0117-27.5961-.7287-39.4512-4.03-15.1259,8.0462-28.342,13.036-39.32,14.8493a64.0746,64.0746,0,0,1-32.7724-2.8635c-11.9236,7.3261-21.6975,11.7329-29.0943,13.1218-12.68,2.3706-25.14-.5916-34.2063-8.1149a37.6617,37.6617,0,0,1-11.7843-17.3957c-1.7361,7.2146-3.0865,13.722-3.976,18.0087l-2.9514,14.215L236.63,539.8332q-13.24,2.482-26.4836,4.8826l-.3987.0729a64.4043,64.4043,0,0,1-15.22,4.5911A44.0943,44.0943,0,0,1,167.3,545.3331c-19.3976,10.3354-35.6638,16.2383-49.6172,18.0259A67.9294,67.9294,0,0,1,109,563.9162Zm-5.5814-332.0275L89.7714,350.6494c-8.6571,72.6436-17.91,154.3323-17.91,165.7094,0,9.8639,4.8976,18.33,13.7884,23.8387,8.1363,5.0413,18.9925,7.12,29.7973,5.7486,12.5774-1.6118,28.6357-7.7891,47.7354-18.3559l4.694-2.5978,4.4539,2.9921a26.85,26.85,0,0,0,19.164,4.1025,47.0808,47.0808,0,0,0,11.9173-3.7038l1.0159-.4715,2.6385-.48q13.1208-2.3791,26.3315-4.8569l2.5314-.4758.5594-2.7007c5.9629-28.73,13.13-56.9283,25.114-68.6655l17.43-17.07-2.557,24.2631c-.2872,2.7307-.6988,5.7529-1.151,9.0151a179.47,179.47,0,0,0-2.1906,24.58c0,7.1417,2.6728,13.289,7.5255,17.3185,5.11,4.2439,12.1208,5.7957,19.7577,4.3682,5.7871-1.0845,15.2973-5.74,26.773-13.1089l4.096-2.6321,4.4025,2.0834a45.64,45.64,0,0,0,26.9767,3.3308c9.7867-1.6161,22.2333-6.5545,36.9863-14.6822l3.3886-1.8647,3.6652,1.2388c9.581,3.2494,26.0593,5.2385,35.9875,4.3254l1.5732,8.6679-.9538-8.7279c18.0066-1.9676,37.0313-10.224,45.6648-24.4217L432.64,464.7932c-7.57-.3558-21.3567-1.6718-28.6292-6.503l-11.99-7.9562,8.2456-7.5833a38.9167,38.9167,0,0,0,5.2642-5.9029l7.774-10.8241,6.876,11.4157c2.8336,4.7026,7.7912,8.0077,15.1559,10.1039l55.7173,15.8782a32.2193,32.2193,0,0,0,2.6792-13.0061c0-10.5026-4.1024-17.7772-12.91-22.9042L457.93,414.1922,484.2465,411.2q5.8353-.6622,11.6643-1.2388l1.8583-.18-.0279-1.77c-.15-9.7224-3.2579-17.6015-8.9872-22.7971-5.7271-5.1955-13.9105-7.489-23.6651-6.7-10.91.9-22.4734,5.9972-31.7264,13.992a52.82,52.82,0,0,0-9.6645,10.8884l-8.0741,12.2816-6.9875-12.9289c-5.815-10.7641-19.13-15.3166-36.5511-12.5259-18.1952,2.9236-34.9887,14.6565-46.0742,32.1893l-12.5817,19.9035L309.91,419.032a15.169,15.169,0,0,0-6.1858-10.5926c-4.4668-3.168-11.017-4.1325-18.4631-2.7221-8.19,1.5518-15.72,5.2384-23.0264,11.2785L247.8632,428.87V414.7023q-12.95,2.4435-25.89,4.8355l-5.845,1.0717q-5.81,1.0674-11.6536,2.1091-14.0949,2.5142-28.1834,4.8826l-2.6664.4373-.2915,2.7006c-.0771.7116-3.8709,35.7774-6.4216,60.6964l-.45,4.394-3.798,2.2591c-14.9759,8.8993-25.2513,14.4593-41.6417,16.6241a11.35,11.35,0,0,1-9.088-2.9322c-3.8581-3.3865-6.3508-9.4823-6.3508-15.5309.2057-6.7345,9.4652-91.574,13.4347-127.75l.6516-5.92,5.7378-1.5861a147.5109,147.5109,0,0,0,69.2978-42.6748l10.9184-12.0716,4.0918,15.7539c4.351,16.7656,19.1725,27.2039,34.5342,24.31,11.7907-2.2291,21.616-9.5552,30.4789-17.1385l5.4871-4.6983,5.665,4.48a22.9289,22.9289,0,0,0,18.806,4.2782c.9945-.1844,1.9419-.4073,2.8679-.6645l6.518-1.8262,7.1332-4.7326c1.3225-.8787,2.5806-1.77,3.7723-2.6492l4.6855-3.4508,5.0048,2.9707a23.8871,23.8871,0,0,0,16.159,2.5678,42.5306,42.5306,0,0,0,14.097-5.2856l38.5-22.3041L376.282,333.1122c-5.4613,7.0946-12.4038,11.3985-20.63,12.7875-13.1861,2.2591-20.2207.0686-32.53-4.304L320.01,340.49l-14.2985,28.5156c14.6136,6.4344,31.6856,8.2606,49.3771,5.2727a73.2438,73.2438,0,0,0,43.6608-24.25c9.208-10.5626,15.2759-23.5129,16.6519-35.533L427.5068,206.01c-.18.0214-.358.0428-.5359.0643q-12.648,1.5367-25.3069,3.3265c-.7716.1072-1.5432.2186-2.3127.3258l-.4137,2.4606c-6.6809,39.867-15.2588,63.8215-25.4956,71.1947l-14.2792,10.284.3708-17.5929c.5037-23.8731,4.6512-57.027,5.1206-60.7307l.0342-.2615a.9143.9143,0,0,0-.105.0171q-13.7605,2.2635-27.51,4.7112l-20.2293,3.6523q-13.8988,2.5593-27.8019,5.1913l-2.5013.4758-1.0524,4.7712-7.8491-.8788a47.27,47.27,0,0,0-14.067.4716,56.9849,56.9849,0,0,0-25.6692,12.5516l-12.3845,10.3611-1.9633-16.0282c-1.9505-15.9425-10.3268-28.8371-24.2224-37.2906a68.941,68.941,0,0,0-19.3934-7.8877l-11.2656-2.7821-12.4038.2144q-3.4208.0577-6.8824.3515l-10.6054.8916,3.3929-31.4692,12.5217,10.1061a31.3125,31.3125,0,0,0,5.41,3.5216l9.2294,4.7069,10.6312-2.5935c10.584-2.5807,19.492-9.253,27.5382-16.08l5.5107-4.6747,5.6456,4.5075a22.6782,22.6782,0,0,0,18.759,4.3232A38.5471,38.5471,0,0,0,248.5,162.1772l1.1789-.628,27.68-5.2577.4522-2.8035c4.1325-25.5578,10.8155-56.3947,25.9736-68.3933L319.7567,72.453l-1.779,20.2936c-1.0675,12.1872-3.796,38.0943-5.8836,57.029q13.4423-2.4725,26.8866-4.84l2.5035-.4351,1.0266-5.41c5.9115-31.1584,11.9859-57.6828,26.6723-67.493L384.2554,61.53l-1.4446,18.0666c-.3923,4.9148-1.11,9.3173-1.8048,13.5762a125.0145,125.0145,0,0,0-2.15,21.526,22.2313,22.2313,0,0,0,7.3583,17.0935c5.172,4.5161,12.3159,6.4237,20.1178,5.3585,10.5369-1.43,18.5253-5.9051,24.9511-10.0954l4.2847-2.7949,4.5439,2.3512a49.4464,49.4464,0,0,0,26.6359,5.1077c16.399-1.3267,32.2365-8.6292,44.2009-14.8429l1.4468-.7523-.6066-1.3568q-4.7166-10.5423-9.4288-21.0223l-5.8064-12.8882,5.815-4.1925c8.5243-6.145,12.8475-14.6564,12.8475-25.2962,0-9.1094-3.1808-16.8834-9.2037-22.4863-7.2918-6.7859-18.41-10.0053-31.33-9.0772-16.92,1.2217-32.92,10.7748-43.8965,26.2093L418.4317,63.3865,414.968,42.3513c-.7309-4.439-3.38-7.9284-7.877-10.3654A26.8519,26.8519,0,0,0,390.8785,29.35c-10.5969,1.5818-20.8316,7.29-31.2935,17.4557L353.3842,52.83,347.2649,46.72c-5.7615-5.7528-12.7789-8.0806-20.3065-6.7131-7.7376,1.3975-15.726,5.6221-23.7422,12.5538L288.6947,65.1183V48.9958L249.638,56.41q-13.9407,2.6364-27.8876,5.2128l-2.4735.4544-1.0545,4.7776-7.8941-.9388a48.4437,48.4437,0,0,0-14.1271.3129c-16.0411,2.8271-30.5475,13.1754-40.8443,29.135l-2.1349,3.3051-4.5525.71q-1.6944.2572-3.3694.5058l-.075.1008-.1736-.0643c-15.2459,2.2612-29.4287,4.1346-43.2428,5.7142-.5809.0665-1.1639.1308-1.7469.1972L89.8143,134.7226l22.9192-2.36L95.2992,149.8271c-6.7367,6.7473-13.7048,10.479-20.7072,11.092a14.9747,14.9747,0,0,1-11.5636-4.036c-6.2244-5.7079-8.4428-16.2576-8.4428-24.2267.0021-36.27,21.8111-79.346,53.1-83.1676a13.8779,13.8779,0,0,1,1.8733-.0922l13.4155.3043-5.6521,12.1723c-.1779.3816-.418.8788-.7481,1.5454a37.4444,37.4444,0,0,0-2.1455,4.9555l-.3065.911c.0665.0257.1308.0514.1951.0771q11.7285,4.6554,23.4636,9.0858l1.1531.433L140.3,77.0184c7.8512-10.7234,11.51-21.0309,11.51-32.4337,0-6.533-3.11-12.8818-8.7558-17.8758-7.8126-6.9082-19.0954-10.2176-30.1595-8.8565C85.44,21.2947,60.6428,36.0926,43.0906,59.5177c-16.2233,21.6632-25.53,50.3781-25.532,78.78,0,15.7067,4.3511,29.7609,12.25,39.5776,9.0343,11.2228,22.2826,16.4269,38.343,15.128A60.3848,60.3848,0,0,0,95.5093,183.83l15.458-9.56-3.185,27.1053-5.3778,1.7233a134.7928,134.7928,0,0,0-20.5808,8.222l-2.1283,1.106,10.74,24.0873ZM135.837,376.2071c-9.1886,83.8064-12.5923,117.2475-12.6995,120.3168v.06c9.6859-1.9033,16.9327-5.5985,26.76-11.3513,2.5334-24.5418,5.9607-56.221,5.9843-56.4182l1.7233-15.9425,15.8032-2.5892q13.9791-2.3406,27.9754-4.8484,5.7968-1.0352,11.5957-2.0962l5.8043-1.0674q12.9761-2.3856,25.9264-4.84L265.4218,393.5v.523a63.7731,63.7731,0,0,1,16.5684-5.5557c12.1573-2.3106,23.4872-.3044,31.8872,5.6457a31.6487,31.6487,0,0,1,6.6937,6.4044,91.5306,91.5306,0,0,1,7.7934-7.7891,97.0462,97.0462,0,0,1-29.9474-7.7461l-16.6712-7.369,13.3533-26.6209a39.46,39.46,0,0,1-14.0049-4.2867c-9.4695,7.57-20.1864,14.3264-33.5783,16.8556C227.57,367.3678,208.277,357.5,198.15,339.8039A166.05,166.05,0,0,1,135.837,376.2071ZM93.3337,76.0174c-11.9944,12.0159-21.0073,34.0734-21.1873,55.9788L87.1993,89.5743l5.4828-.5937q3.5623-.3858,7.1311-.7909,5.472-.6269,11.0384-1.316-1.5078-.5948-3.0115-1.1917-3.9866-1.5819-7.9669-3.1873l-7.6776-3.0971Zm32.333,253.5239,12.1187-104.3142,10.689-1.6247c9.1159-1.3846,19.2648,1.8647,27.1632,8.655a39.0557,39.0557,0,0,1,13.69,29.5915c0,20.0879-13.887,36.0647-22.1648,43.798a95.6958,95.6958,0,0,1-27.6518,18.0987Zm27.9776-88.6632-6.8224,58.7373a79.8255,79.8255,0,0,0,8.3463-6.7945c4.9963-4.6683,16.6006-17.0142,16.6006-30.972a21.5213,21.5213,0,0,0-7.5833-16.2811A18.8371,18.8371,0,0,0,153.6443,240.8781Zm100.6341,73.4538a11.9718,11.9718,0,0,1-7.6412-2.7778,12.9979,12.9979,0,0,1-4.6576-10.0782c0-18.236,11.9194-38.058,24.5289-40.793l1.77-.3815,1.779.3473c5.7378,1.1274,10.4061,7.39,10.4061,13.962,0,13.1561-11.615,37.1706-23.98,39.5111A11.6412,11.6412,0,0,1,254.2784,314.3319Zm-2.137-17.1042ZM187.079,146.9271a12.0158,12.0158,0,0,1-7.74-2.8529,13.0919,13.0919,0,0,1-4.61-10.0675c0-18.238,11.9644-37.9422,24.6189-40.5421l1.8-.3708,1.7962.3837c5.6628,1.2045,10.269,7.4718,10.269,13.97,0,13.2312-11.69,37.1771-24.1346,39.3076A11.6505,11.6505,0,0,1,187.079,146.9271Z" style="fill: #549ab9"/>
      <path id="fullLogo-3" data-name="fullLogo" d="M194.1964,358.9876c-15.0484,2.649-27.2922,16.8677-27.292,31.9207,0,15.05,12.2418,25.3176,27.292,22.6681,15.0492-2.6436,27.2921-17.17,27.2918-32.2141C221.4882,366.3058,209.2456,356.3445,194.1964,358.9876Z" style="fill: #204b59"/>
      <path id="fullLogo-4" data-name="fullLogo" d="M189.5974,422.7615a31.5693,31.5693,0,0,1-20.3964-7.21,31.9139,31.9139,0,0,1-11.0749-24.6446c-.0021-19.3377,15.173-37.1535,34.5492-40.5657h.0043c9.8532-1.7233,19.5713.6944,26.6637,6.6487,7.0454,5.9158,10.9249,14.5751,10.9249,24.3746,0,19.1876-15.501,37.5135-34.5535,40.8572A35.3893,35.3893,0,0,1,189.5974,422.7615Zm6.1215-55.1279c-10.8605,1.9119-20.0363,12.5688-20.0342,23.2729a14.25,14.25,0,0,0,4.8055,11.197c3.1551,2.6535,7.4826,3.6523,12.1851,2.825,10.8627-1.9076,20.0343-12.6974,20.0343-23.5644a13.8965,13.8965,0,0,0-4.66-10.927c-3.1507-2.6492-7.5318-3.6351-12.3309-2.8035Z" style="fill: #549ab9"/>
      <path id="fullLogo-5" data-name="fullLogo" d="M443.5467,495.1131c-12.1561,1.1031-30.9281-1.8784-39.4228-5.35-11.3366,6.4253-26.7279,14.0583-40.039,16.2568-11.3606,1.8649-22.4756.1181-31.6363-4.9877-7.0088,4.6418-21.2608,13.563-30.4179,15.281-17.7289,3.3166-32.1521-8.2371-32.1521-25.8422a181.7653,181.7653,0,0,1,2.2174-25,123.4309,123.4309,0,0,0,1.5545-15.6024,4.1333,4.1333,0,0,0-.3431-1.7531c-19.3746,4.2742-28.6316,48.8822-33.62,72.9141q-.4071,1.9629-.8146,3.9251-16.28,3.06-32.56,6.0068a49.6416,49.6416,0,0,1-13.2951,4.25,30.8991,30.8991,0,0,1-24.4006-6.5451c-21.3547,12.1083-38.4059,18.7135-52.05,20.4595-23.0654,3.0419-47.96-9.519-47.9608-33.2051.001-15.8712,17.1977-160.0156,17.93-166.1973q.2126-1.7838.425-3.5674,6.2542-54.4748,12.5082-109.0249c-2.1351.64-4.32,1.3318-6.5681,2.134q-1.9744.7047-3.9493,1.4015-6.6987-14.9413-13.3975-29.9729,2.1964-1.1372,4.3926-2.2839a146.2614,146.2614,0,0,1,24.788-9.603q1.0983-9.3957,2.1965-18.7934c-10.1935,8.1883-22.1791,14.8974-38.0595,16.2153-33.1492,2.7153-54.5683-21.177-54.5687-57.9907,0-57.4014,36.4744-116.0042,97.5158-123.5766,21.8252-2.6822,43.2455,12.1751,43.2461,30.79,0,11.9744-3.7953,22.7708-11.9459,33.88q-1.23,1.676-2.46,3.35-15.354-5.7393-30.7076-11.8326.6843-2.0385,1.3681-4.0777a40.3547,40.3547,0,0,1,2.2757-5.2853c1.062-2.15,1.7039-3.4471,1.7038-5.4293-.0015-2.8862-3.8274-3.7025-6.5472-3.3748-24.0795,3.0355-50.9081,35.9625-50.9087,80.3763,0,10.3953,4.2574,25.6453,15.9836,24.6366,11.5537-1.0119,21.1489-11.5272,27.5145-20.93q-8.2591.9474-16.5183,1.7663Q91.15,120.7084,97.478,102.808c17.81-1.98,35.62-4.4022,53.43-7.1289,10.4147-17.49,26.0881-29.4585,43.7712-32.5745a55.0218,55.0218,0,0,1,20.6872.5957q.4958-2.2449.9918-4.49,18.4766-3.3831,36.9533-6.91-.2742,2.69-.5485,5.3791c-2.59,25.363-6.4772,63.9924-6.5821,66.4557.0035,1.661.58,3.8727,1.8463,4.41q4.5958-38.4915,9.1916-76.9864,17.3656-3.2975,34.7313-6.589V58.3c8.2694-8.9714,19.5448-18.8961,33.4452-21.4119,10.37-1.8763,20.053,2.3833,27.2178,11.7518,9.22-9.9673,21.3141-20.1152,36.9695-22.4518,12.0963-1.8373,28.849,4.127,28.8494,19.4308,0,7.2592-.4069,13.505-.9287,19.349,8.19-26.1476,30.1191-46.4844,56.5478-48.3968,26.5717-1.9176,44.4231,12.85,44.4224,34.8648,0,23.8239-19.8045,37.2983-54.3329,40.1264-2.3345.1945-4.7091.4011-7.1305.5467,3.2774,5.5,11.9681,6.4648,17.041,6.111,9.7236-.68,14.3752-2.9247,24.5687-7.689q2.3961-1.1142,4.7918-2.2136,6.5994,14.61,13.1993,29.3345-2.0422,1.06-4.0845,2.131c-10.9678,5.7326-27.5754,13.7483-45.0829,15.1646a52.13,52.13,0,0,1-31.1041-7.0421c-8.1462,5.5967-17.1935,10.8452-28.8239,12.4223-17.5992,2.3916-31.9154-9.2925-31.9164-26.511a129.1021,129.1021,0,0,1,2.19-22.0136,119.1657,119.1657,0,0,0,2.0587-20.4173l-.007.0034a1.6271,1.6271,0,0,0-.64-.0781c-20.9928,3.3043-28.2092,41.4817-33.48,69.2748q-.6453,3.3934-1.2906,6.7873-18.0891,3.1416-36.1786,6.5183.2989-2.7129.5977-5.4256c2.5487-23.1323,6.3419-59.1631,6.3417-63.64a3.7092,3.7092,0,0,0-.2287-1.2977c-20.8092,4.714-29.3248,42.987-33.9307,71.4837q-.3325,2.06-.6652,4.12-14.3442,2.72-28.6883,5.4494a41.8185,41.8185,0,0,1-12.6345,4.7455,26.4887,26.4887,0,0,1-24.9841-8.0046c-10.4234,9.1026-21.3239,18.147-35.4245,20.5311-13.1142,2.22-25.8648-4.566-33.473-15.8517q-1.3248,12.2231-2.6494,24.4438c21.2492-2.9654,42.3383.55,57.9648,10.0828,17.2665,10.5293,26.7738,27.5934,26.7744,48.2546q-.0015,1.2111-.0327,2.4265c9.6212-11.0921,21.5344-18.3162,34.7126-20.8228a53.8664,53.8664,0,0,1,20.6871.3812q.496-2.25.9918-4.499,18.4758-3.4994,36.9512-6.89-.2742,2.6877-.5485,5.3752c-2.588,25.3462-6.4777,63.955-6.5822,66.4189.0028,2.0236.8635,4.8661,2.7751,4.515a60.5406,60.5406,0,0,0,7.0258-1.9706c2.1959-22.214,7.5025-71.38,7.56-71.9292l.4692-4.3413q18.6705-3.3384,37.3409-6.3826-.3558,2.7593-.712,5.5187c-.0511.3983-5.1487,40.2328-5.1489,64.8758-.0007,1.0762,1.9585,1.5039,3.7159,1.2182,8.0736-1.3221,19.7064-14.813,29.2695-71.8068q.3407-2.0343.6816-4.0687,17.4334-2.5126,34.8665-4.5538-6.318,56.604-12.6365,113.2781c-1.4259,12.4429-7.8528,26.1858-17.1932,36.9274a75.2628,75.2628,0,0,1-44.8986,24.9624c-18.3,3.0759-36.153,1.1765-51.63-5.6867q-1.9117-.8474-3.8233-1.693,8.37-16.6966,16.74-33.3629,2.0786.7341,4.157,1.4706c12.7879,4.5359,19.2076,6.8364,32.1963,4.6237,17.16-2.8918,24.9586-18.5109,28.5063-32.0415-10.2305,10.2436-20.2577,16.1267-30.3944,17.851-8.093,1.3756-15.8419-.4695-21.4574-5.0123-6.1874,4.7487-14.4875,10.904-24.5452,12.775-10.9,2.0272-19.8472-2.21-24.9841-7.9413-10.4241,9.18-21.3243,18.35-35.4268,21.0166-20.87,3.9634-40.601-14.5908-40.6482-38.0048C186.2038,336.8093,156.28,357.041,122.7374,365.19c-8.6931,79.0655-13.875,128.159-13.8969,131.7469,0,6.5279,3.9283,15.5188,11.0307,14.5934,16.8456-2.2275,27.4485-8.4791,42.1211-17.2363q.6732-.4031,1.3469-.8063c2.5542-25.1167,6.7121-63.5834,6.7547-63.9825q.2346-2.1675.4691-4.3347,18.8817-3.1073,37.7633-6.5435-.3267,2.7384-.6535,5.4771c-3.1352,26.2884-7.8509,66.3379-7.9918,68.9613.0019,2.1443,2.4206,3.1348,4.661,2.7319a10.38,10.38,0,0,0,3.025-1.0179q4.3775-38.7791,8.7553-77.57,17.4984-3.2031,34.9972-6.5376V422.34c7.8432-8.2033,17.7012-16.92,32.5046-19.7267,14.8039-2.8127,29.7929,3.5168,29.7923,20.91a233.0252,233.0252,0,0,1-1.6783,26.0709c-.0133.1146-.0264.23-.0372.3477,5.1234-31.2216,29.197-58.0624,58.9893-62.8666,25.2846-4.0689,42.6745,7.1619,44.2989,27.2429,5.413-20.9874,28.442-37.3458,49.3753-39.033,17.4465-1.5089,36.2342,6.9527,36.6337,32.874l.07,4.5929q-17.6807,1.658-35.3614,4.0792-.2187-2.265-.4368-4.53c-.269-2.8041-2.2708-6.5838-4.9178-6.3519-3.566.31-7.2559,2.9347-7.2565,6.7375-.0015,2.17,6.6915,3.982,12.0693,5.51,12.6734,3.5088,31.8228,9.54,31.8231,32.4463,0,12.3355-6.1567,23.4137-17.34,31.5311-9.4674,6.8717-22.3606,11.5064-35.3781,12.8661Q443.9083,495.0766,443.5467,495.1131ZM405.4145,455.759c8.0253,5.2667,28.4714,6.6573,39.5978,5.57,4.5616-.48,12.2118-1.7035,12.212-5.1309-.7628-1.2514-7.0068-2.4293-10.7367-3.0961a116.1071,116.1071,0,0,1-11.51-2.4756c-13.0495-3.7338-19.9569-11.3648-21.0279-23.6135-4.7007,18.5134-23.4994,30.9681-53.17,35.8954-2.3345.387-4.7106.7861-7.1331,1.1243,3.2795,5.2453,11.969,5.4956,17.0435,4.6864,9.9015-1.59,19.6046-7.1664,29.8787-12.9574q1.3119-.7383,2.6237-1.474Q404.3036,455.0224,405.4145,455.759Zm-94.687,4.2286c-.3673,4.5027-.6138,9.2309-.6138,14.6456,0,.5446,1.0878,1.021,2.3946.8926a48.3051,48.3051,0,0,1-1.8158-13.27Q310.6916,461.1179,310.7275,459.9876Zm46.082-31.6634a55.9122,55.9122,0,0,0,7.0395-.731c4.7162-.78,11.7368-3.3848,11.7358-7.495,0-2.4139-3.0089-3.2408-5.8374-2.785C364.7423,418.1184,359.8011,423.6272,356.81,428.3242Zm-88.2707-164.62c-11.5423,2.1975-23.3012,21.7792-23.3012,38.8117-.001,5.5975,4.4025,9.4924,9.6118,8.5039,10.58-2.01,22.3588-24.0457,22.3583-37.46C277.208,267.6356,272.3242,262.9845,268.5388,263.7047ZM129.7353,323.509c24.4913-6.6488,56.3362-33.9829,56.3354-62.605.0008-20.2194-17.9694-36.9259-36.2787-34.147q-4.484.6831-8.9676,1.34Q135.28,275.8249,129.7353,323.509ZM201.2867,96.5072c-11.5417,2.0664-23.302,21.4042-23.3013,38.4373,0,5.594,4.4024,9.582,9.6118,8.6812,10.58-1.8227,22.359-23.7572,22.3583-37.1744C209.954,100.5281,205.074,95.8339,201.2867,96.5072Zm213.8425,2.158a1.2557,1.2557,0,0,0,.3895.8972c-.14-.5555-.2671-1.1153-.3873-1.6794C415.1282,98.1423,415.1291,98.404,415.1292,98.6652Zm45.0387-42.0129a56.9382,56.9382,0,0,0,7.0373-.151c4.7188-.3875,11.7382-2.3582,11.738-6.4633-.0009-2.4135-3.0081-3.5161-5.8378-3.3069C468.1006,47.0968,463.1581,52.194,460.1679,56.6523Z" style="fill: #204b59"/>
      <path id="fullLogo-6" data-name="fullLogo" d="M111.82,19.4428c19.5848-2.41,38.4647,10.9311,38.4654,26.7473,0,12.0313-4.2481,21.6569-10.8563,30.6437q-11.7982-4.4206-23.5968-9.0489c1.6527-4.9275,4.2476-7.39,4.2482-12.3455.0009-5.6643-5.6648-8.2228-11.3292-7.5385-33.034,4.0218-55.6887,47.4461-55.6882,85.4783-.0009,14.375,6.3717,30.3363,20.7648,29.0967,14.8591-1.3017,27.5746-15.6355,36.3925-31.5453q-9.2718,1.1365-18.5437,2.1189,4.5681-12.8982,9.1362-25.8365c15.5166-1.7723,31.033-3.8746,46.55-6.2144-.012.05-.0237.0991-.0355.1487l.1261-.0189q-1.1245,10.3857-2.2491,20.77c6.14-25.5973,23.6447-49.4667,49.4752-54.0142,9.6727-1.7,18.1688.29,24.07,1.8022q.7065-3.1976,1.4137-6.3952,13.9227-2.5633,27.8453-5.2067c.0009,0-6.6052,64.7237-6.6053,66.8456,0,4.9578,2.5947,9.4252,7.551,8.4875.9963-.1884,2.14-.4781,3.2952-.8079q4.6009-38.5359,9.2014-77.0751,12.86-2.4441,25.72-4.8828V70.4731c7.5528-8.9739,21-25.6855,38.2263-28.8041,12.7428-2.3035,21.4767,6.5805,26.1954,14.742,8.2569-9.6618,21-22.9051,37.9922-25.4421,10.3806-1.5685,24.0677,3.458,24.0673,15.2673.0007,20.5292-3.3023,32.53-3.3029,53.059,0,4.4845,4.485,6.4794,8.9673,5.9145a12.7954,12.7954,0,0,0,3.0639-.7858,44.4314,44.4314,0,0,1-3.5466-17.5607c0-31.7794,22.6534-63.1011,55.2177-65.5109,23.5967-1.7043,39.6438,10.3854,39.6425,30.1784,0,23.8405-22.4175,32.9364-49.5533,35.2513-4.2481.3533-8.7327.7579-13.2155.7209-.001,11.7964,11.7969,16.3,23.1263,15.4962,10.854-.7583,16.28-3.4264,26.9-8.3574q4.7188,10.4311,9.4377,20.9206c-8.4921,4.4529-25.4843,13.1815-42.9453,14.605a46.5737,46.5737,0,0,1-30.7532-8.0487c-8.12,5.7576-17.1751,11.8012-29.1733,13.4277-14.8669,2.019-27.1366-7.6038-27.1359-22.4758,0-16.2842,4.2482-26.14,4.2482-42.42.0008-2.832-2.5953-4.561-5.4281-4.12-25.7218,4.0652-33.0371,47.0057-38.7017,76.7489q-13.45,2.3574-26.9,4.8438c0-.0011,6.3712-57.8037,6.3715-64.1735,0-2.83-1.4163-5.8776-4.2485-5.3574C290,83.3435,281.0354,125.9238,276.3157,155.12q-12.7542,2.4223-25.5085,4.8456a37.4857,37.4857,0,0,1-11.7643,4.58c-10.8551,2.0435-20.0581-3.5787-23.5994-10.2478-11.3244,9.8533-22.4169,20.3412-36.81,22.7745-17.456,2.9706-34.8637-13.0009-35.7816-33.4519q-2.84,26.2239-5.68,52.4364,2.29-.3828,4.5957-.7237c41.0606-6.0486,80.7034,13.2145,80.7037,54.3343a90.4289,90.4289,0,0,1-2.1531,19.5342c8.842-16.91,23.0835-30.5078,41.6119-34.0346,9.6742-1.8395,18.1677.0844,24.07,1.5647q.7068-3.2012,1.4133-6.4024,13.9229-2.6315,27.8454-5.1994c-.0006-.0022-6.6052,64.6934-6.6053,66.818,0,4.9585,2.5968,9.43,7.551,8.52a84.1426,84.1426,0,0,0,10.3835-3.0694q.3966,1.131.7926,2.2619c1.5624-17.0645,8.1626-78.198,8.1623-78.1956q13.8044-2.4468,27.6088-4.73c-.0006-.0017-5.191,40.2663-5.1916,65.5177,0,4.2484,4.2476,5.896,8.497,5.2041,19.3483-3.1372,28.7862-45.4964,33.9778-76.449q12.743-1.7994,25.4861-3.3455-6.0168,53.9379-12.0339,107.938c-2.3593,20.6514-20.7677,50.9123-57.3407,57.0335-19.824,3.3391-36.3412.2394-49.0852-5.4228q6.135-12.2309,12.27-24.4426c13.2162,4.6808,20.2935,7.19,34.4559,4.7776,22.887-3.8558,33.5048-27.059,35.8668-51.9706-10.3831,13.337-23.1272,25.7309-37.7561,28.2213-8.3225,1.4151-15.8415-1.195-20.47-6.5233-6.459,4.826-14.9723,12.3205-25.5337,14.2849-10.8564,2.0192-20.058-3.5485-23.5994-10.1941-11.3241,9.933-22.4183,20.547-36.81,23.2693-17.9359,3.4023-35.8681-12.9179-35.8691-34.1654a86.8463,86.8463,0,0,1,1.9868-18.1772c-17.4142,34.4316-54.3267,60.7532-93.5849,69.08C114.33,398.5229,104.06,492.2214,104.06,497.5044c0,9.1947,5.6642,20.127,15.8115,18.8063,19.378-2.5685,31.1056-10.2491,47.9385-20.2842,2.5414-25.216,7.036-66.7841,7.0355-66.7845q14.0408-2.3418,28.0818-4.8634c0,.0039-8.0232,67.2649-8.0242,69.3839,0,4.9547,4.4845,7.7046,9.44,6.815a16.7578,16.7578,0,0,0,7.4705-3.4243q4.285-37.9679,8.57-75.9457,12.9781-2.39,25.9563-4.8507v17.4617c9.2039-9.5249,19.1147-22.9783,37.283-26.4251,12.9793-2.4635,25.0121,2.8551,25.0132,17.0135,0,19.8211-3.3021,31.2908-3.3026,51.1124,0,3.7729,3.7752,5.43,7.551,4.7335a40.3977,40.3977,0,0,0,6.0293-1.7934,42.9932,42.9932,0,0,1-3.4411-17.0854c.0005-31.8159,22.654-64.2452,55.2179-69.5191,23.5987-3.7953,39.6424,6.4222,39.6425,26.23,0,23.8267-22.4176,35.5021-49.5533,40.0443-4.2463.7044-8.7313,1.4645-13.2156,1.7637.0014,11.7966,11.7994,15.4188,23.1264,13.6066,10.8559-1.7423,21.1227-7.6245,31.7392-13.5948,9.5957,6.2756,31.729,7.2545,42.583,6.205,7.5518-.7927,16.99-2.7889,16.9914-10.3334,0-6.8588-13.4524-6.3986-25.25-9.7861-9.44-2.7317-18.1712-8.2124-18.1709-23.0849-.0012-23.1463,25.25-41.214,45.78-42.84,23.36-1.869,31.6187,13.1083,31.8547,28.37q-13.0949,1.3084-26.19,3.0321c-.473-4.9173-4.0155-10.7908-9.6767-10.2976-6.3718.5557-12.0372,5.6148-12.0365,11.9836,0,13.6137,43.8926,5.06,43.8938,37.7186,0,23.3362-24.5448,36.8658-47.9429,39.3911-.2221.0229-.4482.046-.6695.0662-12.3833,1.11-32.8393-2.4-38.9534-5.9325-.0042-.0481-.008-.096-.0125-.144-10.5291,6.1365-26.864,14.7222-40.5455,16.9883-11.7752,1.9336-22.6186-.4127-31.0677-5.9312-7.5614,5.1926-22.5717,14.6427-30.9869,16.2225-15.1022,2.8238-27.3725-6.8644-27.3724-21.97,0-15.5753,3.7721-30.217,3.773-40.6.0007-3.0649-1.4135-6.3365-4.7188-5.7095-22.89,4.356-32.3281,46.9614-38.6993,77.6485q-13.2144,2.4753-26.4292,4.8726.0666-.5929.1335-1.1862a44.7749,44.7749,0,0,1-15.7011,5.8445,26.7117,26.7117,0,0,1-23.1265-7.6617c-17.4644,10.1377-37.125,19.5237-53.3236,21.5775-21.2351,2.7821-43.1811-8.2757-43.1817-28.8307,0-15.763,17.8968-165.66,17.8969-165.7069l.0153-.0016q6.83-59.5225,13.661-119.1327c-4.0155,1.1808-8.4975,2.3966-13.2159,4.0747q-4.9552-11.0394-9.9108-22.127c6.8483-3.59,16.3729-7.1305,27.2318-10.2319q1.9683-16.8584,3.9366-33.7236C99.786,181.1525,87.043,189.9286,68.8719,191.4487c-34.4506,2.7211-49.7893-24.1558-49.79-53.296,0-56.7643,36.1033-111.6414,92.7372-118.71M467.2059,61.2821c7.5518-.617,16.5179-4.0051,16.5185-11.55.0006-5.191-4.9562-8.1983-10.62-7.78-10.1479.7431-18.4048,13.5711-20.0576,18.445,3.0687,1.1231,8.497,1.3363,14.1589.8853M187.5981,148.4059c14.1623-2.446,27.1392-27.961,27.1386-42.8246.0006-8.26-6.6081-15.0724-13.45-13.854-15.1031,2.7014-28.0813,25.14-28.0817,44.0154,0,8.021,6.3715,14.0508,14.393,12.6632M124.3059,329.4641c26.4292-3.8776,66.5443-34.6549,66.5448-69.3884,0-23.6-20.7641-41.1747-41.0587-38.0981q-6.6078,1.0068-13.216,1.9554-6.1353,52.7934-12.27,105.5311M254.85,315.8c14.1619-2.69,27.1372-28.2849,27.1383-43.1479.0008-8.2607-6.6073-15.03-13.45-13.7277-15.1028,2.8765-28.0824,25.6188-28.0818,44.4945-.0017,8.0212,6.3718,13.9034,14.3932,12.3811M363.8485,432.3727c7.5505-1.2478,16.5166-5.4734,16.5162-13.0214-.0006-5.1919-4.955-7.7326-10.6176-6.8191-10.1475,1.6351-18.4049,15.0943-20.0575,20.0957,3.0656.8877,8.495.6755,14.1589-.2552M111.82,9.8823c-29.3821,3.681-56.0777,19.3041-75.169,44.7987C19.41,77.7181,9.5218,107.8772,9.522,138.2921c.0007,17.4448,4.9822,33.3759,14.029,44.6087,10.6429,13.2114,26.3149,19.6782,45.3209,18.1084A68.7079,68.7079,0,0,0,101.0281,189.89q-.3145,2.6955-.63,5.3912a143.9891,143.9891,0,0,0-22.3333,8.9075q-4.3939,2.2869-8.7875,4.5337,1.8829,4.238,3.7659,8.4684,4.9553,11.1334,9.9109,22.2154,1.6035,3.5864,3.207,7.1675,3.8946-1.3639,7.7892-2.7577-5.9362,51.7451-11.8724,103.4215-.144,1.19-.2884,2.38C79.952,365.0632,63.824,500.4134,63.8242,516.2993c0,12.661,6.2623,23.6756,17.6335,30.7149,9.6466,5.973,22.4424,8.5218,35.1085,6.893,13.6518-1.7463,30.3942-8.0653,51.04-19.5306a34.4618,34.4618,0,0,0,25.41,5.6148,54.72,54.72,0,0,0,13.9895-4.3734q.7888-.1427,1.5781-.2849,13.2144-2.3889,26.4292-4.8725,3.8577-.723,7.7158-1.45.8146-3.9245,1.6291-7.8489c3.6036-17.359,11.4993-55.4044,24.2783-65.8229-.2686,3.0829-.7468,6.5552-1.273,10.3619a185.5228,185.5228,0,0,0-2.2656,25.6785c0,20.2417,16.5678,33.5256,36.9329,29.7133,9.0332-1.6919,21.7108-9.1447,29.9662-14.4662a53.6748,53.6748,0,0,0,32.0884,4.1749c13.28-2.1926,28.2891-9.35,39.819-15.7264,10.3,3.581,28.077,5.8745,39.5952,4.8245q.3834-.038.7667-.076c14.1346-1.4752,27.635-6.3266,38.0167-13.8287,12.5654-9.0809,19.486-21.5534,19.4865-35.55.0007-16.8463-9.0439-25.8329-18.9784-30.9819q6.9725-.811,13.9446-1.5044,4.5919-.4554,9.1839-.8575l-.1418-9.1915c-.2954-19.1536-11.3324-39.7907-41.4141-37.4038-12.45,1.0235-26.0178,7.0206-36.2962,15.9a60.15,60.15,0,0,0-11.83,13.6548c-7.0026-14.1833-23.5869-21.3008-45.5468-17.7651-21.9044,3.5213-40.9456,18.0755-52.613,37.5631-1.4225-16.3941-15.4734-25.6271-34.4547-22.0246-11.6516,2.2079-20.5784,7.787-27.7226,13.9119v-6.7595q-4.78.9072-9.56,1.8109-12.978,2.4527-25.9563,4.8507-3.33.6132-6.66,1.2206-5.3981.9843-10.7963,1.9506-14.0409,2.5111-28.0818,4.8633-4.2828.7143-8.5655,1.4095-.4684,4.3329-.9374,8.6658c-.0429.3866-3.9041,36.099-6.47,61.18-14.0063,8.3316-23.5927,13.7764-39.001,15.8135-3.366.44-6.2521-5.362-6.2512-10.4063.1238-4.2644,5.13-51.691,13.45-127.4521a155.6065,155.6065,0,0,0,74.5739-46.1781c4.8355,20.957,23.7507,35.3674,44.2407,31.48,13.8432-2.6165,24.9-10.9442,34.64-19.3232a31.0755,31.0755,0,0,0,25.77,6.2483,42.3591,42.3591,0,0,0,4.9721-1.2441q-6.0855,12.1264-12.171,24.2694-2.1862,4.3625-4.3726,8.7262,3.8228,1.6875,7.6456,3.38c16.2422,7.1914,34.9768,9.1718,54.1782,5.9439a81.09,81.09,0,0,0,48.2925-26.8508c10.22-11.7238,16.98-26.1815,18.5446-39.8445q6.0189-53.9665,12.0372-107.8692.6009-5.3848,1.2024-10.7689-5.3511.5943-10.7021,1.241-12.7433,1.5384-25.4861,3.3455-4.0287.569-8.0575,1.1612-.6825,4.0707-1.365,8.142c-9.2195,54.99-19.668,64.982-23.4659,66.7852.39-24.4316,5.0345-60.7111,5.0837-61.0892q.7118-5.5176,1.4235-11.035-5.4512.8646-10.902,1.763-13.8043,2.274-27.6088,4.73-4.283.7592-8.5658,1.5313-.4685,4.3418-.9371,8.6835c-.2282,2.12-4.8407,44.8758-7.1812,68.1374q-.3254.0919-.6382.1766l-.0034-.0738c.2835-4.1068,4.1417-42.39,6.5507-65.9747q.5487-5.3741,1.098-10.7485-5.3035.9582-10.6071,1.933-13.923,2.5581-27.8454,5.2-3.804.7193-7.608,1.4409-.323,1.463-.646,2.9264a55.5446,55.5446,0,0,0-17.2292.47,64.8369,64.8369,0,0,0-30.2656,15.1092c-1.9718-18.9249-11.8205-34.4808-28.2286-44.4688a78.9368,78.9368,0,0,0-24.9554-9.5888c.05-.008.1026-.0173.1527-.0254,13.8443-2.3393,24.9-10.5381,34.64-18.8438a30.8643,30.8643,0,0,0,25.77,6.3171,46.495,46.495,0,0,0,13.46-4.9016q11.9064-2.2569,23.8124-4.5242,4.05-.769,8.099-1.536.666-4.1207,1.3316-8.2408c2.264-14.0213,8.6953-53.8315,24.3465-64.3855-.8893,10.6135-3.5055,35.7066-5.9947,58.2961q-.5978,5.4264-1.1956,10.8524,5.3483-.9983,10.6963-1.9835,13.45-2.4774,26.9-4.8439,3.9312-.6889,7.8624-1.3654.7592-3.9879,1.5182-7.9753.2655-1.4.5313-2.8c4.2565-22.453,10.4967-55.4052,24.4791-63.1136-.3265,5.0043-1.055,9.4944-1.8154,14.177a133.5326,133.5326,0,0,0-2.2547,22.8165c0,19.8586,16.4613,33.2792,36.6966,30.5284,11.5143-1.5612,20.5447-6.2761,28.59-11.5612a57.4518,57.4518,0,0,0,31.3365,6.1822c18.5207-1.4979,35.8189-9.7913,47.2207-15.7188q4.0851-2.1308,8.1707-4.2156-1.8546-4.1552-3.71-8.3006-4.7186-10.5456-9.4373-21.0308-1.536-3.4119-3.0713-6.8177a38.4677,38.4677,0,0,0,16.6378-32.2695c0-24.8664-19.7735-41.7088-49.2028-39.5829C453.17,13.3,434.89,25.47,423.12,42.8978c-.666-7.6462-4.9616-14.0039-12.261-17.9614a34.7428,34.7428,0,0,0-21.2756-3.5279C374.5969,23.6435,362.499,32.5668,353.37,41.56c-7.6886-7.94-17.4822-11.3491-27.9736-9.451-11.2086,2.0274-20.865,8.4036-28.6657,15.3683V39.29q-4.78.8973-9.5606,1.8013-12.86,2.4309-25.72,4.8828-1.4175.2694-2.8353.5388-5.3034,1.0074-10.607,2.011-13.923,2.6334-27.8453,5.2067-3.8036.7-7.6077,1.3929-.3234,1.4607-.6462,2.9214a56.6706,56.6706,0,0,0-17.2295.2788c-18.5575,3.27-35.0476,15.3229-46.3157,32.9632q-.5007.0759-1.001.1513c-15.5168,2.34-31.0332,4.442-46.55,6.2143q-3.3348.3809-6.67.7412-1.1517,3.254-2.3029,6.5055-4.5676,12.8993-9.1357,25.7576-2.3664,6.66-4.7323,13.3081,6.492-.5968,12.984-1.2791c-5.7146,6.1644-11.6125,9.7473-17.1284,10.23-8.1631.706-11.2035-12.047-11.2041-20.2043,0-33.3772,19.7263-72.0256,46.1275-75.25a4.6821,4.6821,0,0,1,1.6385.0749,19.9107,19.9107,0,0,1-1.0219,2.2432,45.3717,45.3717,0,0,0-2.5589,5.96q-1.3689,4.0731-2.7379,8.1431,3.6752,1.4808,7.35,2.9378,11.7981,4.678,23.5968,9.13,3.4346,1.2976,6.8692,2.5788,2.461-3.3507,4.9222-6.7094c8.8937-12.1437,13.037-23.974,13.0369-37.1178-.0013-21.4236-23.3387-37.8594-48.026-34.8194Zm75.7786,128.9632c-2.529.437-4.8327-1.8114-4.8324-4.7121-.0008-15.2481,10.4355-31.3963,18.5211-32.8456,1.103.0135,3.89,2.5571,3.8894,6.0257.0005,11.4289-10.514,30.3179-17.5781,31.532ZM147.8287,185.05q.39-3.6078.7812-7.2157a38.9094,38.9094,0,0,0,11.0589,6.7672,109.5928,109.5928,0,0,0-11.84.4485Zm-2.7554,47.2q2.359-.3523,4.7187-.7118C163.97,229.3985,181.29,242.73,181.29,261.7212c0,16.98-12.32,31.16-19.6646,38.0216a87.6654,87.6654,0,0,1-26.3711,17.0262q4.9093-42.2425,9.8189-84.5192ZM254.85,306.24c-2.5284.48-4.8327-1.7254-4.8329-4.6259,0-15.2505,10.4338-31.59,18.5215-33.1289,1.1021,0,3.8887,2.5126,3.8893,5.9824,0,11.4254-10.5148,30.4319-17.5779,31.7724Zm69.5544,27.3368c2.0923-1.33,4.043-2.7081,5.8506-4.0493a31.74,31.74,0,0,0,22.0432,3.83,51.6683,51.6683,0,0,0,19.4868-7.9234c-3.9263,6.2332-9.548,11.19-17.5975,12.5517-11.7449,2.0011-17.0611.1145-29.7831-4.4094Zm134.56,77.5342a4.1324,4.1324,0,0,1,.6806-.2527,4.282,4.282,0,0,1,.3833.6514c-.3781-.1335-.7349-.2666-1.0639-.3987Zm-53.8855,38.3021a45.88,45.88,0,0,0,7.702-8.8373c3.8613,7.05,10.6865,11.9151,20.4261,14.6918,2.2245.6355,4.4591,1.14,6.6237,1.5733-10.4955.1768-25.5017-1.3047-31.4279-5.2225q-1.6619-1.1046-3.3239-2.2053Z" style="fill: #fff"/>
      <path id="fullLogo-7" data-name="fullLogo" d="M194.1957,408.0537c-12.002,2.1107-21.7676-6.0487-21.7676-18.0525-.0007-12.0078,9.766-23.381,21.7676-25.4923,12.0044-2.1089,21.7708,5.8577,21.77,17.8672C215.9658,394.3771,206.2008,405.9451,194.1957,408.0537Z" style="fill: #204b59"/>
      <path id="fullLogo-8" data-name="fullLogo" d="M194.196,369.29c9.437-1.6571,16.989,4.5143,16.9888,13.9578.0011,9.4372-7.5512,18.3677-16.9888,20.0251-9.4379,1.6595-16.9884-4.6314-16.9888-14.0685,0-9.444,7.55-18.2546,16.9888-19.9144m0-9.56c-14.64,2.5773-26.5484,16.4147-26.5494,31.0575,0,14.6384,11.91,24.6239,26.5494,22.0463,14.6381-2.5714,26.5493-16.6994,26.5493-31.3347,0-14.6466-11.91-24.3406-26.5493-21.7691Z" style="fill: #fff"/>
      <path id="fullLogo-9" data-name="fullLogo" d="M175.4682,528.6018l-7.9691-3.6866c9.1994-19.8735-4.4025-27.311-4.9855-27.62l4.0853-7.7676C166.8154,489.6394,188.1314,501.2437,175.4682,528.6018Z" style="fill: #fff"/>
      <path id="fullLogo-10" data-name="fullLogo" d="M164.5456,527.4573l-2.1949-.0686c.5573-18.3088-4.604-25.5535-4.6554-25.6221l1.76-1.3117C159.6865,500.7635,165.1286,508.2654,164.5456,527.4573Z" style="fill: #549ab9"/>
      <path id="fullLogo-11" data-name="fullLogo" d="M157.8282,531.4525l-2.1948-.0771c.6065-18.2359-4.6105-25.4292-4.6641-25.502l1.7491-1.3246C152.9541,504.8574,158.4626,512.3207,157.8282,531.4525Z" style="fill: #549ab9"/>
      <path id="fullLogo-12" data-name="fullLogo" d="M150.68,533.8531l-2.1948-.0771c.6387-17.9445-4.5569-25.0133-4.6105-25.0819l1.74-1.3375C145.8509,507.6567,151.3509,515.0042,150.68,533.8531Z" style="fill: #549ab9"/>
      <path id="fullLogo-13" data-name="fullLogo" d="M143.5661,537.4111l-2.1948-.0771c.6323-17.9959-4.5654-25.0862-4.619-25.1591l1.7425-1.3332C138.7285,511.1461,144.2305,518.5151,143.5661,537.4111Z" style="fill: #549ab9"/>
      <path id="fullLogo-14" data-name="fullLogo" d="M137.2174,540.2318l-2.1948-.0771c.6837-19.4491-4.9405-27.11-4.9984-27.1867l1.7426-1.3332C132.0175,511.9606,137.9311,519.8783,137.2174,540.2318Z" style="fill: #549ab9"/>
      <path id="fullLogo-15" data-name="fullLogo" d="M129.54,542.56l-2.1948-.0772c.6837-19.4448-4.94-27.11-4.9984-27.1867l1.7426-1.3332C124.34,514.2883,130.2535,522.21,129.54,542.56Z" style="fill: #549ab9"/>
      <path id="fullLogo-16" data-name="fullLogo" d="M122.6809,544.27l-2.1948-.0686c.62-20.3665-5.1312-28.417-5.1891-28.4942l1.76-1.3117C117.3118,514.7341,123.3261,523.02,122.6809,544.27Z" style="fill: #549ab9"/>
      <path id="fullLogo-17" data-name="fullLogo" d="M585.6923,284.3769h-17.398L554.916,268.431l22.7415-27.0672,3.9483-4.6995,3.9484-4.7,4.4656-5.3151,2.8282-3.3662H555.2653l-.6139.7306-.9693,1.1538-.8568,1.02-.8578,1.0207-7.9508,9.464V223.2935h-14.03l16.2618-19.3561,3.9484-4.6995,3.9482-4.6994,4.4658-5.3157,2.8278-3.3662H523.8553l-.614.7312-.9694,1.1547-.8567,1.02-.8571,1.02-7.95,9.4635V185.8676H483.6038v91.8448h29.0038V259.0685l2.4057,2.8591v53.2107h29.0034V296.51l12.3522,14.6956.855,1.0182.8593,1.0222.97,1.1533.614.73h27.3646l.1044-.0105.1655-.017a15.0708,15.0708,0,0,0,13.5-15.0816v-.5326A15.1269,15.1269,0,0,0,585.6923,284.3769Zm-23.74,25.8436-22.8442-27.1786V310.23H519.9216V260.1372l-12.2223-14.525v27.1917H488.5121V190.7757h19.1872v21.9421l16.6172-19.7791.857-1.02.9694-1.1539h24.7613l-4.4658,5.3155-3.9482,4.7L517.104,230.9965l2.8176,3.3588v-6.1535h19.1867v21.9421l16.6177-19.7792.8569-1.02.97-1.1539h24.7613l-4.4658,5.3155-3.9482,4.7-25.3924,30.2229,17.4978,20.8563h19.6872a10.2129,10.2129,0,0,1,10.2013,10.2014v.5325a10.2626,10.2626,0,0,1-8.5231,10.2014Z" style="fill: #204b59"/>
      <path id="fullLogo-18" data-name="fullLogo" d="M519.9216,306.9953V310.23h19.1867V283.0419l22.8442,27.1786h25.418a10.2626,10.2626,0,0,0,8.5231-10.2014v-.5325a10.2129,10.2129,0,0,0-10.2013-10.2014H566.0051l-17.4978-20.8563L573.9,238.206l3.9482-4.6995,4.4658-5.3155H557.5524l-.97,1.1539-.8569,1.02-16.6177,19.7792V228.2018H519.9216v6.1535l-2.8176-3.3588L542.49,200.78l3.9482-4.6995,4.4658-5.3155H526.1429l-.9694,1.1539-.857,1.02-16.6172,19.7791V190.7757H488.5121v82.0282h19.1872V245.6122l12.2223,14.525v46.8581Z" style="fill: #fff"/>
      <path id="fullLogo-19" data-name="fullLogo" d="M589.799,299.4866a4.1064,4.1064,0,0,0-4.1067-4.1065H563.1629L540.55,268.4262l28.6837-34.1408H560.392l-27.3782,32.5875V234.2962h-6.9977v16.8084l-16.8694-20.1117,28.6772-34.1336h-8.8414l-27.3778,32.5871V196.87h-6.998V266.71h6.998V239.97l4.6525-5.538,19.7589,23.4819v46.2217h6.9977v-26.74l4.6545-5.54,27.1233,32.27h5.709l0,0h15.1922a4.1064,4.1064,0,0,0,4.1067-4.1065Z" style="fill: #204b59"/>
      <path id="fullLogo-20" data-name="fullLogo" d="M113.4113,515.4587s3.7846,3.187,20.9146-2.2574c0,0,8.9634-2.39,27.355-13.4119l-4.4485-2.39L118.723,510.7446Z" style="fill: #fff"/>
      <path id="fullLogo-21" data-name="fullLogo" d="M118.9221,548.5237l.1328-4.6477s17.5538-1.8179,49.6228-20.4087c0,0,1.369,7.2624,1.3026,6.864s-17.794,7.0379-17.794,7.0379Z" style="fill: #fff"/>
    </g>
  </g>
</svg>
