<svg xmlns="http://www.w3.org/2000/svg" viewBox="0 0 202.821 242.723"><title>Los Angeles Kings light logo</title><g fill="#FFF"><path d="M0 169.423l101.41 73.3 101.41-73.3V0H0v169.423zm170.047 36.627c0-1.123-.936-2.06-2.06-2.06h-2.932v6.943h1.31v-2.84h.936l1.31 2.84h1.436L168.674 208c.796-.297 1.373-1.06 1.373-1.95zm-2.044.764h-1.622v-1.53h1.623c.406 0 .75.344.75.765-.017.42-.344.764-.75.764z"/><path d="M167.55 201.386c-3.353 0-6.067 2.73-6.067 6.084a6.075 6.075 0 0 0 6.068 6.068 6.076 6.076 0 0 0 0-12.152zm0 10.825c-2.635 0-4.772-2.136-4.772-4.757a4.773 4.773 0 0 1 9.547 0 4.76 4.76 0 0 1-4.773 4.758z"/></g><path d="M6.692 166.007l94.718 68.45 94.703-68.45V124.31H6.693v41.697zm0-47.547H196.13V6.676H6.69V118.46z" fill="#ACAEA9"/><path d="M12.667 162.965l88.744 64.128 88.73-64.128V134.7H12.666v28.265zm0-53.303h177.488v-97.01H12.667v97.01z" fill="#111"/><path d="M34.412 82.223v-21.06C34.412 36.737 40.09 28 40.09 28H17.986s5.678 8.736 5.678 33.164c0 24.413-5.678 33.148-5.678 33.148H90.18s6.02-8.19 6.02-20.67c0 0-8.22 8.58-27.58 8.58H34.413zm68.12-54.207s5.695 8.736 5.695 33.164c0 24.413-5.694 33.148-5.694 33.148h16.426v-24.71h49.464v24.71h16.41s-5.694-8.736-5.694-33.148c0-24.428 5.694-33.164 5.694-33.164h-82.3z" fill="#ACAEA9"/><path d="M104.998 29.53c1.732 4.07 4.773 13.695 4.773 31.634 0 17.923-3.025 27.564-4.772 31.604h12.417V68.09h52.538v24.694h12.4c-1.73-4.056-4.757-13.68-4.757-31.604 0-17.94 3.01-27.58 4.758-31.635-4.492-.016-72.832-.016-77.356-.016zm-72.13 54.238V61.18c0-17.94 3.01-27.58 4.757-31.635h-17.16c1.733 4.07 4.76 13.696 4.76 31.635 0 17.923-3.012 27.564-4.76 31.604H89.37c1.123-1.778 4.368-7.612 5.117-15.864-3.93 2.7-12.152 6.848-25.863 6.848H32.867z" fill="#FFF"/><path d="M117.415 59.06h52.538v-20.5h-52.538v20.5z" fill="#ACAEA9"/><path d="M118.96 40.09h49.464v17.424H118.96V40.09z"/><path d="M128.085 196.347l6.598-37.734-1.388-.593s-5.35 7.176-6.364 8.517c-2.198-2.7-6.395-6.053-12.073-7.924.437-1.092 2.51-6.13 2.51-6.13s-3.166 1.28-4.538 1.825c.14-.265.295-.546.295-.546s-4.867.265-5.616.296c-.39-.67-3.043-5.382-3.417-6.006.328-.546 1.326-2.31 1.435-2.496.172-.14 1.42-1.2 1.42-1.2l-1.622-3.074-3.432.25s-.047 1.607-.062 1.903l-.42.624-.39-.64c-.017-.313-.08-1.904-.08-1.904l-3.43-.25-1.623 3.073s1.247 1.06 1.403 1.2c.125.187 1.123 1.95 1.45 2.496-.358.624-3.01 5.335-3.415 6.006-.764-.03-5.616-.296-5.616-.296s.14.296.296.546c-1.373-.546-4.54-1.825-4.54-1.825s2.06 5.023 2.512 6.13c-5.678 1.872-9.89 5.226-12.09 7.924-.997-1.34-6.363-8.516-6.363-8.516l-1.357.593 6.567 37.734s9.375 2.403 26.69 2.403c17.283.016 26.658-2.386 26.658-2.386z" fill="#FFF"/><path d="M95.935 197.018s-8.58-.796-13.665-2.76c3.48.498 9.11 1.185 14.258 1.185 0 0-6.957-.718-11.575-2.45 3.494.453 8.455.984 13.025.984 0 0-6.8-.702-11.403-2.402 4.134-.89 9.22-1.59 14.835-1.59 5.6 0 10.7.7 14.82 1.59-4.618 1.7-11.388 2.402-11.388 2.402 4.555 0 9.516-.53 13.01-.983-4.617 1.732-11.575 2.45-11.575 2.45 5.148 0 10.78-.687 14.258-1.187-5.085 1.965-13.665 2.76-13.665 2.76 12.635-.327 20.107-2.214 20.107-2.214l5.787-33.663-5.865 7.846c-2.575-4.212-7.582-7.58-13.993-9.453l1.763-4.305-9.063 4.07v-2.245l-4.196-7.222-4.21 7.208v2.246l-9.08-4.07 1.778 4.304c-6.41 1.872-11.403 5.257-13.992 9.453l-5.865-7.83 5.804 33.663s7.487 1.872 20.09 2.215z" fill="#111"/><g fill="#ACAEA9"><path d="M97.2 160.095l-7.645-3.447 7.644 18.64v-15.193zm8.407 0v15.21l7.66-18.642-7.66 3.432zm-.78-.312l-3.416-4.46-3.43 4.46 3.43 4.07 3.417-4.07z"/><path d="M128.225 183.025c-1.513-.25-2.667-1.622-2.667-3.29 0-1.826 1.42-3.324 3.135-3.324.234 0 .437.017.655.08l2.137-12.402-9.282 12.4c.203 5.944-1.248 8.33-1.248 8.33s-3.104-1.247-6.583-1.95l-1.2-6.005c-.53 0-1-.172-1.42-.437-.017 0-.032-.016-.048-.016l-3.057 5.538s-3.837-.36-5.772-.36l1.732-5.334-3.198-8.252-3.2 8.252 1.717 5.335c-1.934 0-5.772.358-5.772.358l-2.823-5.132c-.187.03-.36.047-.546.047-.39 0-.764-.094-1.092-.25l-1.264 6.24c-3.463.702-6.583 1.95-6.583 1.95s-1.435-2.387-1.248-8.33l-9.283-12.4 2.137 12.4c.218-.062.42-.078.655-.078 1.73 0 3.134 1.498 3.134 3.323 0 1.654-1.154 3.042-2.667 3.29l1.84 10.733c2.934-1.122 12.746-4.523 24.99-4.523 12.215 0 22.058 3.4 24.975 4.524l1.843-10.715z"/></g><path d="M102.845 159.642c0-.796-.655-1.45-1.435-1.45-.81 0-1.435.654-1.435 1.45 0 .796.624 1.435 1.435 1.435.78 0 1.435-.64 1.435-1.435zm6.303 1.482c-.265-.328-.67-.562-1.123-.562-.796 0-1.435.64-1.435 1.45 0 .656.452 1.233 1.076 1.39.234.14.484.233.764.233.75 0 1.357-.593 1.357-1.342 0-.498-.25-.935-.64-1.17zm-13.853 0a1.47 1.47 0 0 0-1.14-.562c-.795 0-1.434.64-1.434 1.45 0 .656.47 1.233 1.093 1.39.218.14.468.233.764.233.75 0 1.357-.593 1.357-1.342 0-.498-.25-.935-.64-1.17z" fill="#111"/><g fill="#FFF"><path d="M76.966 170.39l1.607 2.12c3.884-7.596 11.668-8.454 11.668-8.454-6.675 2.48-9.452 6.38-10.357 10.217l1.498 1.98s-.186 5.383.89 7.63c.328-.14.718-.282 1.154-.407-3.48-14.304 7.8-16.94 7.8-16.94-7.97 4.117-7.222 11.433-5.6 16.27.67-.188 1.404-.36 2.2-.547l1.2-5.944a2.734 2.734 0 0 1-1.763-2.558c0-1.53 1.233-2.76 2.762-2.76.89 0 1.67.42 2.184 1.06a2.656 2.656 0 0 1 1.232 2.23 2.62 2.62 0 0 1-1.357 2.278l2.528 4.617a57.965 57.965 0 0 1 4.118-.28l-8.158-19.89c-6.38 1.843-11.34 5.26-13.602 9.377zm34.038 5.725a2.749 2.749 0 0 1-1.357-2.355c0-1.53 1.232-2.76 2.76-2.76.906 0 1.67.42 2.185 1.06a2.617 2.617 0 0 1 1.232 2.23c0 1.187-.81 2.2-1.903 2.497l1.11 5.475c.795.187 1.512.36 2.183.546 1.622-4.836 2.355-12.152-5.6-16.27 0 0 11.278 2.636 7.815 16.94.42.14.827.282 1.154.407 1.045-2.262.874-7.628.874-7.628l1.513-1.98c-.92-3.838-3.682-7.738-10.374-10.218 0 0 7.784.857 11.668 8.454l1.607-2.12c-2.26-4.12-7.22-7.52-13.555-9.392l-8.158 19.89c1.404.046 2.777.14 4.118.28l2.73-5.057z"/><path d="M89.992 171.388c-1.295 0-2.355 1.06-2.355 2.355s1.06 2.355 2.355 2.355 2.34-1.06 2.34-2.355-1.046-2.355-2.34-2.355zm24.77 2.356a2.362 2.362 0 0 0-2.354-2.355c-1.295 0-2.34 1.06-2.34 2.354s1.045 2.355 2.34 2.355a2.363 2.363 0 0 0 2.355-2.356zm-39.683 5.99c0-.562-.422-1.014-.968-1.014-.094 0-.187 0-.265.03l.328 2.013c.514-.046.904-.483.904-1.03z"/><path d="M74.112 176.786c-.203 0-.39.03-.593.078l.06.374c.188-.062.344-.078.53-.078 1.327 0 2.372 1.154 2.372 2.574 0 1.295-.89 2.355-2.043 2.543l.077.374c1.326-.217 2.355-1.434 2.355-2.932.016-1.606-1.232-2.932-2.76-2.932zm53.63 2.948c0 .546.374.967.89 1.014l.342-2.012c-.094-.03-.172-.03-.28-.03-.53.014-.952.466-.952 1.028z"/><path d="M128.303 182.667l.062-.374c-1.154-.187-2.043-1.248-2.043-2.543 0-1.42 1.06-2.574 2.37-2.574.188 0 .344.016.53.078l.08-.374a2.841 2.841 0 0 0-.61-.078c-1.528 0-2.76 1.326-2.76 2.948 0 1.48 1.03 2.698 2.37 2.917zm-25.676-23.025c0-.67-.546-1.232-1.217-1.232-.686 0-1.232.562-1.232 1.232 0 .686.546 1.217 1.232 1.217.67 0 1.217-.53 1.217-1.218zm5.397 3.588c.686 0 1.217-.546 1.217-1.217 0-.686-.53-1.232-1.216-1.232-.67 0-1.232.547-1.232 1.233 0 .655.562 1.217 1.232 1.217zm-13.867 0a1.226 1.226 0 1 0-1.218-1.216c0 .655.546 1.217 1.217 1.217z"/></g><g fill="#111"><circle cx="89.992" cy="173.744" r="2.09"/><circle cx="112.408" cy="173.744" r="2.09"/><path d="M101.332 177.222c.156.078.328.125.53.125.686 0 1.248-.562 1.248-1.248 0-.485-.28-.92-.702-1.11.187.235.312.516.312.843 0 .765-.623 1.39-1.388 1.39z"/><circle cx="101.332" cy="175.834" r="1.123"/><circle cx="101.41" cy="159.642" r="1.092"/><circle cx="108.024" cy="161.998" r="1.092"/><circle cx="94.157" cy="161.998" r="1.092"/><path d="M94.89 186.785h-.03c.17.078.358.14.56.14.687 0 1.25-.562 1.25-1.264 0-.483-.297-.904-.703-1.107.187.25.312.53.312.858a1.382 1.382 0 0 1-1.39 1.375zm-10.686 1.887h-.03c.17.11.342.14.545.14.7 0 1.247-.546 1.247-1.232 0-.5-.28-.936-.702-1.123.203.25.312.515.312.858a1.37 1.37 0 0 1-1.373 1.357zm22.947-1.887c-.015 0-.015 0 0 0 .14.078.33.14.53.14a1.247 1.247 0 0 0 .547-2.371c.187.25.312.53.312.858a1.38 1.38 0 0 1-1.39 1.375zm10.702 1.887c.156.11.328.14.53.14.702 0 1.248-.546 1.248-1.232 0-.5-.296-.936-.702-1.123.203.25.312.515.312.858 0 .75-.608 1.357-1.388 1.357z"/><circle cx="94.89" cy="185.412" r="1.123"/><circle cx="84.204" cy="187.3" r="1.123"/><circle cx="107.151" cy="185.412" r="1.123"/><circle cx="117.852" cy="187.3" r="1.123"/><path d="M73.613 175.99l1.342.062-.577-1.732-.765 1.67zm3.104.998l.39-1.794-1.498 1.076 1.107.718zm2.277.39l-1.825.14.576 1.2 1.248-1.34zm-1.248 3.354l1.778-.53-1.654-.81-.124 1.34zm-.156.484l-.733 1.123 1.794.373-1.06-1.497zm-2.62 2.2l1.295 1.31-.062-1.857-1.233.545zm53.474-9.095l-.608 1.733 1.357-.062-.75-1.67zm-1.248 1.95l-1.482-1.075.374 1.794 1.108-.72zm-1.545 1.25l-1.84-.14 1.248 1.34.593-1.2zm-.7 1.87l-1.67.812 1.78.53-.11-1.34zm-.796 3.323l1.794-.374-.733-1.124-1.06 1.497zm2.45.156l-.063 1.855 1.296-1.31-1.233-.546zm-29.717-26.083l4.524-7.784 4.51 7.784h3.618l.42-.858h-3.57l-4.51-7.754 2.216-3.79.53-.547-.36-.563-.826.078-.125.686-1.903 3.292-1.903-3.29-.14-.687-.827-.078-.36.562.53.545 2.216 3.79-4.493 7.754h-3.588l.437.857h3.605z"/></g></svg>